<?xml version="1.0" standalone="no"?>
<!DOCTYPE svg PUBLIC "-//W3C//DTD SVG 20010904//EN"
 "http://www.w3.org/TR/2001/REC-SVG-20010904/DTD/svg10.dtd">
<svg version="1.0" xmlns="http://www.w3.org/2000/svg"
 width="13334000000pt" height="7500000000pt" viewBox="0 0 13334000000 7500000000"
 preserveAspectRatio="xMidYMid meet">

<g transform="translate(0.000000,7500.000000) scale(0.100000,-0.100000)"
fill="#000000" stroke="none">
<path d="M45400 43830 c0 -5 -11 -10 -25 -10 -16 0 -25 -6 -25 -15 0 -9 -9
-15 -25 -15 -16 0 -25 -6 -25 -15 0 -8 -7 -15 -15 -15 -8 0 -15 -7 -15 -15 0
-11 -11 -15 -40 -15 -29 0 -40 -4 -40 -15 0 -8 -7 -15 -15 -15 -8 0 -15 -7
-15 -15 0 -11 -11 -15 -36 -15 -35 0 -64 -18 -64 -39 0 -6 -13 -11 -30 -11
l-30 0 0 -215 c0 -137 -4 -215 -10 -215 -6 0 -10 73 -10 200 0 171 -2 200 -15
200 -13 0 -15 -40 -15 -300 0 -260 2 -300 15 -300 8 0 15 7 15 15 0 8 5 15 10
15 6 0 10 14 10 30 0 17 -4 30 -10 30 -5 0 -10 7 -10 15 0 8 5 15 10 15 6 0
10 -7 10 -15 0 -10 10 -15 30 -15 20 0 30 -5 30 -15 0 -9 9 -15 25 -15 16 0
25 6 25 15 0 8 -7 15 -15 15 -8 0 -15 7 -15 15 0 11 11 15 40 15 28 0 40 4 40
14 0 8 -6 16 -12 19 -8 2 -9 8 -4 13 5 5 11 4 13 -3 10 -29 83 -6 83 26 0 6 7
11 15 11 8 0 15 -7 15 -15 0 -8 7 -15 15 -15 8 0 15 7 15 15 0 8 -7 15 -15 15
-8 0 -15 7 -15 15 0 9 9 15 25 15 16 0 25 -6 25 -15 0 -8 7 -15 15 -15 8 0 15
7 15 15 0 8 7 15 15 15 8 0 15 7 15 15 0 9 9 15 25 15 16 0 25 6 25 15 0 8 -7
15 -15 15 -8 0 -15 7 -15 15 0 8 7 15 15 15 8 0 15 5 15 10 0 6 -7 10 -15 10
-8 0 -15 7 -15 15 0 8 7 15 15 15 13 0 15 33 15 240 0 207 -2 240 -15 240 -8
0 -15 -4 -15 -10z m-180 -170 c0 -5 -7 -10 -15 -10 -8 0 -15 5 -15 10 0 6 7
10 15 10 8 0 15 -4 15 -10z m100 -285 c0 -8 -4 -15 -10 -15 -5 0 -10 -7 -10
-15 0 -8 -7 -15 -15 -15 -8 0 -15 -4 -15 -10 0 -5 7 -10 15 -10 8 0 15 -7 15
-15 0 -8 -7 -15 -15 -15 -8 0 -15 7 -15 15 0 9 -9 15 -25 15 -14 0 -25 5 -25
10 0 6 11 10 25 10 16 0 25 6 25 15 0 8 7 15 15 15 8 0 15 7 15 15 0 8 5 15
10 15 6 0 10 -7 10 -15z m30 -110 c0 -8 -7 -15 -15 -15 -8 0 -15 7 -15 15 0 8
7 15 15 15 8 0 15 -7 15 -15z"/>
<path d="M49240 43435 c0 -10 -10 -15 -30 -15 -20 0 -30 -5 -30 -15 0 -9 -9
-15 -25 -15 -16 0 -25 -6 -25 -15 0 -9 -9 -15 -25 -15 -16 0 -25 -6 -25 -15 0
-10 -10 -15 -30 -15 -16 0 -30 -4 -30 -10 0 -5 -11 -10 -25 -10 -16 0 -25 -6
-25 -15 0 -11 -11 -15 -40 -15 -29 0 -40 -4 -40 -15 0 -9 -9 -15 -25 -15 -16
0 -25 -6 -25 -15 0 -10 -10 -15 -30 -15 -20 0 -30 -5 -30 -15 0 -11 -11 -15
-40 -15 -29 0 -40 -4 -40 -15 0 -9 -9 -15 -25 -15 -14 0 -25 -4 -25 -10 0 -5
-7 -10 -15 -10 -8 0 -15 -7 -15 -15 0 -11 -11 -15 -40 -15 -29 0 -40 -4 -40
-15 0 -9 -9 -15 -25 -15 -16 0 -25 -6 -25 -15 0 -10 -10 -15 -30 -15 -20 0
-30 -5 -30 -15 0 -9 -9 -15 -25 -15 -16 0 -25 -6 -25 -15 0 -9 -9 -15 -25 -15
-14 0 -25 -4 -25 -10 0 -5 -13 -10 -30 -10 -20 0 -30 -5 -30 -15 0 -11 -11
-15 -40 -15 -29 0 -40 -4 -40 -15 0 -8 -4 -15 -10 -15 -5 0 -10 -7 -10 -15 0
-10 -10 -15 -30 -15 -20 0 -30 -5 -30 -15 0 -11 -11 -15 -40 -15 -29 0 -40 -4
-40 -15 0 -9 -9 -15 -25 -15 -14 0 -25 -4 -25 -10 0 -5 -13 -10 -30 -10 -20 0
-30 -5 -30 -15 0 -9 -9 -15 -25 -15 -16 0 -25 -6 -25 -15 0 -11 -11 -15 -40
-15 -29 0 -40 -4 -40 -15 0 -8 -7 -15 -15 -15 -8 0 -15 -7 -15 -15 0 -11 -11
-15 -40 -15 -29 0 -40 -4 -40 -15 0 -9 -9 -15 -25 -15 -14 0 -25 -4 -25 -10 0
-5 -11 -10 -25 -10 -16 0 -25 -6 -25 -15 0 -11 -11 -15 -40 -15 -29 0 -40 -4
-40 -15 0 -10 -10 -15 -30 -15 -20 0 -30 -5 -30 -15 0 -8 -4 -15 -10 -15 -5 0
-10 -7 -10 -15 0 -11 -12 -15 -45 -15 -33 0 -45 -4 -45 -15 0 -9 -9 -15 -25
-15 -14 0 -25 -4 -25 -10 0 -5 -11 -10 -25 -10 -16 0 -25 -6 -25 -15 0 -11
-11 -15 -40 -15 -29 0 -40 -4 -40 -15 0 -10 -10 -15 -30 -15 -20 0 -30 -5 -30
-15 0 -10 10 -15 30 -15 20 0 30 -5 30 -15 0 -8 5 -15 10 -15 6 0 10 -7 10
-15 0 -9 10 -15 26 -15 26 0 54 -20 54 -39 0 -6 18 -11 40 -11 29 0 40 -4 40
-15 0 -8 7 -15 15 -15 8 0 15 -7 15 -15 0 -10 10 -15 30 -15 20 0 30 -5 30
-15 0 -9 9 -15 25 -15 16 0 25 -6 25 -15 0 -9 9 -15 25 -15 14 0 25 -4 25 -10
0 -5 14 -10 30 -10 20 0 30 -5 30 -15 0 -9 9 -15 25 -15 16 0 25 -6 25 -15 0
-9 9 -15 25 -15 16 0 25 -6 25 -15 0 -10 10 -15 30 -15 20 0 30 -5 30 -15 0
-9 9 -15 25 -15 16 0 25 -6 25 -15 0 -9 9 -15 25 -15 14 0 25 -4 25 -10 0 -5
14 -10 30 -10 20 0 30 -5 30 -15 0 -9 9 -15 25 -15 16 0 25 -6 25 -15 0 -9 9
-15 25 -15 16 0 25 -6 25 -15 0 -8 7 -15 15 -15 8 0 15 -7 15 -15 0 -10 10
-15 30 -15 20 0 30 -5 30 -15 0 -9 9 -15 25 -15 14 0 25 -4 25 -10 0 -5 18
-10 40 -10 29 0 40 -4 40 -15 0 -8 7 -15 15 -15 8 0 15 -7 15 -15 0 -9 9 -15
25 -15 16 0 25 -6 25 -15 0 -9 9 -15 25 -15 16 0 25 -6 25 -15 0 -10 10 -15
30 -15 20 0 30 -5 30 -15 0 -9 9 -15 25 -15 14 0 25 -4 25 -10 0 -5 11 -10 25
-10 16 0 25 -6 25 -15 0 -10 10 -15 30 -15 20 0 30 -5 30 -15 0 -9 9 -15 25
-15 16 0 25 -6 25 -15 0 -8 7 -15 15 -15 8 0 15 -7 15 -15 0 -9 9 -15 25 -15
16 0 25 -6 25 -15 0 -10 10 -15 30 -15 17 0 30 -4 30 -10 0 -5 11 -10 25 -10
16 0 25 -6 25 -15 0 -9 9 -15 25 -15 16 0 25 -6 25 -15 0 -10 10 -15 30 -15
20 0 30 -5 30 -15 0 -9 9 -15 25 -15 16 0 25 -6 25 -15 0 -9 9 -15 25 -15 16
0 25 -6 25 -15 0 -10 10 -15 30 -15 17 0 30 -4 30 -10 0 -5 11 -10 25 -10 16
0 25 -6 25 -15 0 -8 7 -15 15 -15 8 0 15 -7 15 -15 0 -9 9 -15 25 -15 16 0 25
-6 25 -15 0 -9 9 -15 25 -15 l25 0 0 -595 0 -595 -25 0 c-16 0 -25 -6 -25 -15
0 -9 -9 -15 -25 -15 -16 0 -25 -6 -25 -15 0 -10 -10 -15 -30 -15 -16 0 -30 -4
-30 -10 0 -5 -11 -10 -25 -10 -16 0 -25 -6 -25 -15 0 -9 -9 -15 -25 -15 -16 0
-25 -6 -25 -15 0 -11 -11 -15 -40 -15 -29 0 -40 -4 -40 -15 0 -10 -10 -15 -30
-15 -20 0 -30 -5 -30 -15 0 -9 -9 -15 -25 -15 -16 0 -25 -6 -25 -15 0 -9 -9
-15 -25 -15 -14 0 -25 -4 -25 -10 0 -5 -13 -10 -30 -10 -20 0 -30 -5 -30 -15
0 -11 -11 -15 -40 -15 -29 0 -40 -4 -40 -15 0 -8 -7 -15 -15 -15 -8 0 -15 -7
-15 -15 0 -9 -9 -15 -25 -15 -16 0 -25 -6 -25 -15 0 -11 -11 -15 -40 -15 -29
0 -40 -4 -40 -15 0 -8 -7 -15 -15 -15 -13 0 -15 70 -15 570 0 373 -3 570 -10
570 -5 0 -10 7 -10 15 0 8 -7 15 -15 15 -8 0 -15 5 -15 10 0 6 -18 10 -40 10
-29 0 -40 4 -40 15 0 9 -9 15 -25 15 -16 0 -25 6 -25 15 0 10 -10 15 -30 15
-20 0 -30 5 -30 15 0 9 -9 15 -25 15 -16 0 -25 6 -25 15 0 9 -9 15 -25 15 -16
0 -25 6 -25 15 0 10 -10 15 -30 15 -16 0 -30 5 -30 10 0 6 -7 10 -15 10 -8 0
-15 7 -15 15 0 11 -12 15 -50 15 -38 0 -50 4 -50 15 0 10 -10 15 -30 15 -20 0
-30 5 -30 15 0 9 -9 15 -25 15 -16 0 -25 6 -25 15 0 9 -9 15 -25 15 -16 0 -25
6 -25 15 0 8 -7 15 -15 15 -8 0 -15 5 -15 10 0 6 -18 10 -40 10 -29 0 -40 4
-40 15 0 9 -9 15 -25 15 -16 0 -25 6 -25 15 0 10 -10 15 -30 15 -20 0 -30 5
-30 15 0 9 -9 15 -25 15 -16 0 -25 6 -25 15 0 9 -9 15 -25 15 -16 0 -25 6 -25
15 0 10 -10 15 -30 15 -16 0 -30 5 -30 10 0 6 -11 10 -25 10 -16 0 -25 6 -25
15 0 11 -11 15 -40 15 -29 0 -40 4 -40 15 0 8 -7 15 -15 15 -8 0 -15 7 -15 15
0 9 -9 15 -25 15 -16 0 -25 6 -25 15 0 8 -7 15 -15 15 -8 0 -15 7 -15 15 0 8
-7 15 -15 15 -10 0 -15 -10 -15 -30 0 -25 -4 -30 -25 -30 -16 0 -25 6 -25 15
0 9 -9 15 -25 15 -16 0 -25 6 -25 15 0 10 -10 15 -30 15 -16 0 -30 5 -30 10 0
6 -11 10 -25 10 -16 0 -25 6 -25 15 0 9 -9 15 -25 15 -16 0 -25 6 -25 15 0 10
-10 15 -30 15 -20 0 -30 5 -30 15 0 9 -9 15 -25 15 -16 0 -25 6 -25 15 0 10
-10 15 -30 15 -20 0 -30 5 -30 15 0 9 -9 15 -25 15 -14 0 -25 5 -25 10 0 6
-11 10 -25 10 -16 0 -25 6 -25 15 0 10 -10 15 -30 15 -20 0 -30 5 -30 15 0 11
-11 15 -40 15 -29 0 -40 4 -40 15 0 8 -4 15 -10 15 -5 0 -10 7 -10 15 0 10
-10 15 -30 15 -20 0 -30 5 -30 15 0 11 -11 15 -40 15 -22 0 -40 5 -40 10 0 6
-28 10 -65 10 -37 0 -65 -4 -65 -10 0 -5 -13 -10 -30 -10 -20 0 -30 -5 -30
-15 0 -9 -9 -15 -25 -15 -16 0 -25 -6 -25 -15 0 -11 -11 -15 -40 -15 -29 0
-40 -4 -40 -15 0 -9 -9 -15 -25 -15 -16 0 -25 -6 -25 -15 0 -10 -10 -15 -30
-15 -20 0 -30 -5 -30 -15 0 -11 -11 -15 -40 -15 -22 0 -40 -4 -40 -10 0 -5
-11 -10 -25 -10 -16 0 -25 -6 -25 -15 0 -9 -9 -15 -25 -15 -16 0 -25 -6 -25
-15 0 -10 -10 -15 -30 -15 -20 0 -30 -5 -30 -15 0 -11 -11 -15 -40 -15 -29 0
-40 -4 -40 -15 0 -9 -9 -15 -25 -15 -16 0 -25 -6 -25 -15 0 -10 -10 -15 -30
-15 -16 0 -30 -4 -30 -10 0 -5 -11 -10 -25 -10 -16 0 -25 -6 -25 -15 0 -11
-11 -15 -40 -15 -29 0 -40 -4 -40 -15 0 -9 -9 -15 -25 -15 -16 0 -25 -6 -25
-15 0 -10 -10 -15 -30 -15 -20 0 -30 -5 -30 -15 0 -11 -11 -15 -40 -15 -29 0
-40 -4 -40 -15 0 -9 -9 -15 -25 -15 -14 0 -25 -4 -25 -10 0 -5 -11 -10 -25
-10 -16 0 -25 -6 -25 -15 0 -10 -10 -15 -30 -15 -20 0 -30 -5 -30 -15 0 -9 -9
-15 -25 -15 -16 0 -25 -6 -25 -15 0 -11 -11 -15 -40 -15 -29 0 -40 -4 -40 -15
0 -10 -10 -15 -30 -15 -20 0 -30 -5 -30 -15 0 -9 -9 -15 -25 -15 -14 0 -25 -4
-25 -10 0 -5 -11 -10 -25 -10 -16 0 -25 -6 -25 -15 0 -11 -11 -15 -40 -15 -29
0 -40 -4 -40 -15 0 -10 -10 -15 -30 -15 -20 0 -30 -5 -30 -15 0 -9 -9 -15 -25
-15 -16 0 -25 -6 -25 -15 0 -9 -9 -15 -25 -15 -16 0 -25 -6 -25 -15 0 -12 -13
-15 -55 -15 -30 0 -55 -4 -55 -10 0 -5 -7 -10 -15 -10 -8 0 -15 -7 -15 -15 0
-11 -11 -15 -40 -15 -29 0 -40 -4 -40 -15 0 -9 -9 -15 -25 -15 -16 0 -25 -6
-25 -15 0 -10 -10 -15 -30 -15 -20 0 -30 -5 -30 -15 0 -11 -11 -15 -40 -15
-29 0 -40 -4 -40 -15 0 -8 7 -15 15 -15 8 0 15 -4 15 -10 0 -5 11 -10 25 -10
16 0 25 -6 25 -15 0 -8 7 -15 15 -15 8 0 15 -7 15 -15 0 -9 9 -15 25 -15 16 0
25 -6 25 -15 0 -10 10 -15 30 -15 20 0 30 -5 30 -15 0 -9 9 -15 25 -15 16 0
25 -6 25 -15 0 -10 10 -15 30 -15 17 0 30 -4 30 -10 0 -5 11 -10 25 -10 16 0
25 -6 25 -15 0 -9 9 -15 25 -15 16 0 25 -6 25 -15 0 -10 10 -15 30 -15 20 0
30 -5 30 -15 0 -9 9 -15 25 -15 16 0 25 -6 25 -15 0 -8 7 -15 15 -15 8 0 15
-7 15 -15 0 -9 9 -15 25 -15 14 0 25 -4 25 -10 0 -5 11 -10 25 -10 16 0 25 -6
25 -15 0 -10 10 -15 30 -15 20 0 30 -5 30 -15 0 -9 9 -15 25 -15 16 0 25 -6
25 -15 0 -10 10 -15 30 -15 20 0 30 -5 30 -15 0 -9 9 -15 25 -15 16 0 25 -6
25 -15 0 -9 9 -15 25 -15 14 0 25 -4 25 -10 0 -5 7 -10 15 -10 8 0 15 -7 15
-15 0 -9 9 -15 25 -15 16 0 25 -6 25 -15 0 -10 10 -15 30 -15 20 0 30 -5 30
-15 0 -9 9 -15 25 -15 16 0 25 -6 25 -15 0 -9 9 -15 25 -15 16 0 25 -6 25 -15
0 -10 10 -15 30 -15 17 0 30 -4 30 -10 0 -5 11 -10 25 -10 16 0 25 -6 25 -15
0 -9 9 -15 25 -15 16 0 25 -6 25 -15 0 -10 10 -15 30 -15 20 0 30 -5 30 -15 0
-8 5 -15 10 -15 6 0 10 -7 10 -15 0 -10 10 -15 30 -15 20 0 30 -5 30 -15 0 -9
9 -15 25 -15 14 0 25 -4 25 -10 0 -5 14 -10 30 -10 20 0 30 -5 30 -15 0 -9 9
-15 25 -15 16 0 25 -6 25 -15 0 -9 9 -15 25 -15 16 0 25 -6 25 -15 0 -10 10
-15 30 -15 20 0 30 -5 30 -15 0 -8 5 -15 10 -15 6 0 10 -7 10 -15 0 -10 10
-15 30 -15 17 0 30 -4 30 -10 0 -5 11 -10 25 -10 16 0 25 -6 25 -15 0 -9 9
-15 25 -15 16 0 25 -6 25 -15 0 -10 10 -15 30 -15 20 0 30 -5 30 -15 0 -9 9
-15 25 -15 16 0 25 -6 25 -15 0 -9 9 -15 25 -15 16 0 25 -6 25 -15 0 -10 10
-15 30 -15 17 0 30 -4 30 -10 0 -5 11 -10 25 -10 l25 0 0 -245 c0 -157 -4
-245 -10 -245 -7 0 -10 -318 -10 -935 0 -824 -2 -935 -15 -935 -13 0 -15 -28
-15 -195 l0 -195 25 0 c16 0 25 6 25 15 0 10 10 15 30 15 17 0 30 5 30 10 0 6
11 10 25 10 16 0 25 6 25 15 0 9 9 15 25 15 16 0 25 6 25 15 0 10 10 15 30 15
20 0 30 5 30 15 0 9 9 15 25 15 16 0 25 6 25 15 0 9 9 15 25 15 16 0 25 6 25
15 0 9 10 15 26 15 26 0 54 20 54 39 0 6 14 11 30 11 20 0 30 5 30 15 0 9 9
15 25 15 16 0 25 6 25 15 0 10 10 15 30 15 20 0 30 5 30 15 0 9 9 15 25 15 16
0 25 6 25 15 0 9 9 15 25 15 14 0 25 5 25 10 0 6 14 10 30 10 20 0 30 5 30 15
0 9 9 15 25 15 16 0 25 6 25 15 0 9 9 15 25 15 16 0 25 6 25 15 0 8 7 15 15
15 13 0 15 -213 15 -1855 0 -1642 2 -1855 15 -1855 8 0 15 -7 15 -15 0 -8 -7
-15 -15 -15 -13 0 -15 -27 -15 -185 0 -158 2 -185 15 -185 13 0 15 -52 15
-410 l0 -410 25 0 c16 0 25 -6 25 -15 0 -9 9 -15 25 -15 16 0 25 -6 25 -15 0
-10 10 -15 30 -15 20 0 30 -5 30 -15 0 -9 9 -15 25 -15 14 0 25 -4 25 -10 0
-5 7 -10 15 -10 8 0 15 -7 15 -15 0 -9 9 -15 25 -15 16 0 25 -6 25 -15 0 -10
10 -15 30 -15 20 0 30 -5 30 -15 0 -9 9 -15 25 -15 16 0 25 -6 25 -15 0 -9 9
-15 25 -15 16 0 25 -6 25 -15 0 -8 7 -15 15 -15 8 0 15 -4 15 -10 0 -5 11 -10
25 -10 16 0 25 -6 25 -15 0 -10 10 -15 30 -15 20 0 30 -5 30 -15 0 -9 9 -15
25 -15 16 0 25 -6 25 -15 0 -8 7 -15 15 -15 8 0 15 -7 15 -15 0 -9 9 -15 25
-15 16 0 25 -6 25 -15 0 -9 9 -15 25 -15 14 0 25 -4 25 -10 0 -5 14 -10 30
-10 20 0 30 -5 30 -15 0 -9 9 -15 25 -15 16 0 25 -6 25 -15 0 -8 7 -15 15 -15
8 0 15 -7 15 -15 0 -9 9 -15 25 -15 16 0 25 -6 25 -15 0 -10 10 -15 30 -15 20
0 30 -5 30 -15 0 -9 9 -15 25 -15 14 0 25 -4 25 -10 0 -5 11 -10 25 -10 16 0
25 -6 25 -15 0 -8 7 -15 15 -15 8 0 15 -7 15 -15 0 -9 9 -15 25 -15 16 0 25
-6 25 -15 0 -10 10 -15 30 -15 20 0 30 -5 30 -15 0 -9 9 -15 25 -15 16 0 25
-6 25 -15 0 -9 9 -15 25 -15 14 0 25 -4 25 -10 0 -5 7 -10 15 -10 8 0 15 -7
15 -15 0 -9 9 -15 25 -15 16 0 25 -6 25 -15 0 -10 10 -15 30 -15 20 0 30 -5
30 -15 0 -9 9 -15 25 -15 16 0 25 -6 25 -15 0 -8 7 -15 15 -15 8 0 15 -7 15
-15 0 -9 9 -15 25 -15 14 0 25 -4 25 -10 0 -5 14 -10 30 -10 20 0 30 -5 30
-15 0 -9 9 -15 25 -15 16 0 25 -6 25 -15 0 -8 7 -15 15 -15 8 0 15 -7 15 -15
0 -9 9 -15 25 -15 16 0 25 -6 25 -15 0 -9 9 -15 25 -15 16 0 25 -6 25 -15 0
-10 10 -15 30 -15 17 0 30 -4 30 -10 0 -5 11 -10 25 -10 16 0 25 -6 25 -15 0
-8 7 -15 15 -15 8 0 15 -7 15 -15 0 -9 9 -15 25 -15 16 0 25 -6 25 -15 0 -9 9
-15 25 -15 16 0 25 -6 25 -15 0 -10 10 -15 30 -15 20 0 30 -5 30 -15 0 -8 5
-15 10 -15 6 0 10 7 10 15 0 11 12 15 45 15 33 0 45 4 45 15 0 8 5 15 10 15 6
0 10 7 10 15 0 10 10 15 30 15 20 0 30 5 30 15 0 9 9 15 25 15 16 0 25 6 25
15 0 9 9 15 25 15 14 0 25 5 25 10 0 6 14 10 30 10 20 0 30 5 30 15 0 9 9 15
25 15 16 0 25 6 25 15 0 8 7 15 15 15 8 0 15 7 15 15 0 9 9 15 25 15 16 0 25
6 25 15 0 9 9 15 25 15 16 0 25 6 25 15 0 9 10 15 26 15 26 0 54 20 54 39 0 6
14 11 30 11 20 0 30 5 30 15 0 9 9 15 25 15 16 0 25 6 25 15 0 10 10 15 30 15
20 0 30 5 30 15 0 9 9 15 25 15 16 0 25 6 25 15 0 9 9 15 25 15 14 0 25 5 25
10 0 6 7 10 15 10 8 0 15 7 15 15 0 9 9 15 25 15 16 0 25 6 25 15 0 10 10 15
30 15 20 0 30 5 30 15 0 9 9 15 25 15 16 0 25 6 25 15 0 9 9 15 25 15 16 0 25
6 25 15 0 9 10 15 26 15 26 0 54 20 54 39 0 6 14 11 30 11 20 0 30 5 30 15 0
9 9 15 25 15 16 0 25 6 25 15 0 10 10 15 30 15 20 0 30 5 30 15 0 9 9 15 25
15 16 0 25 6 25 15 0 8 7 15 15 15 8 0 15 5 15 10 0 6 11 10 25 10 16 0 25 6
25 15 0 9 9 15 25 15 16 0 25 6 25 15 0 10 10 15 30 15 20 0 30 5 30 15 0 9 9
15 25 15 16 0 25 6 25 15 0 8 7 15 15 15 8 0 15 7 15 15 0 9 9 15 25 15 14 0
25 5 25 10 0 6 11 10 25 10 16 0 25 6 25 15 0 10 10 15 30 15 20 0 30 5 30 15
0 9 9 15 25 15 16 0 25 6 25 15 0 8 7 15 15 15 8 0 15 7 15 15 0 9 9 15 25 15
16 0 25 6 25 15 0 10 10 15 30 15 17 0 30 5 30 10 0 6 11 10 25 10 16 0 25 6
25 15 0 9 9 15 25 15 16 0 25 6 25 15 0 10 10 15 30 15 20 0 30 5 30 15 0 8 5
15 10 15 6 0 10 7 10 15 0 8 7 15 15 15 13 0 15 73 15 595 0 522 2 595 15 595
11 0 15 11 15 40 0 22 5 40 10 40 7 0 10 310 10 910 0 600 -3 910 -10 910 -6
0 -10 77 -10 210 0 133 4 210 10 210 6 0 10 7 10 15 0 8 -4 15 -10 15 -6 0
-10 63 -10 170 l0 170 25 0 c16 0 25 -6 25 -15 0 -9 9 -15 25 -15 16 0 25 -6
25 -15 0 -10 10 -15 30 -15 20 0 30 -5 30 -15 0 -9 9 -15 25 -15 14 0 25 -4
25 -10 0 -5 11 -10 25 -10 16 0 25 -6 25 -15 0 -10 10 -15 30 -15 20 0 30 -5
30 -15 0 -9 9 -15 25 -15 16 0 25 -6 25 -15 0 -10 10 -15 30 -15 20 0 30 -5
30 -15 0 -9 9 -15 25 -15 16 0 25 -6 25 -15 0 -9 9 -15 25 -15 14 0 25 -4 25
-10 0 -5 14 -10 30 -10 20 0 30 -5 30 -15 0 -9 9 -15 25 -15 16 0 25 -6 25
-15 0 -8 7 -15 15 -15 8 0 15 -7 15 -15 0 -11 11 -15 40 -15 29 0 40 -4 40
-15 0 -8 5 -15 10 -15 7 0 10 -460 10 -1360 l0 -1360 40 0 c29 0 40 4 40 15 0
10 10 15 30 15 20 0 30 5 30 15 0 8 5 15 10 15 6 0 10 7 10 15 0 10 10 15 30
15 20 0 30 5 30 15 0 9 9 15 25 15 14 0 25 5 25 10 0 6 14 10 30 10 20 0 30 5
30 15 0 9 9 15 25 15 16 0 25 6 25 15 0 8 7 15 15 15 8 0 15 7 15 15 0 9 9 15
25 15 16 0 25 6 25 15 0 9 9 15 25 15 16 0 25 6 25 15 0 10 10 15 30 15 17 0
30 5 30 10 0 6 11 10 25 10 16 0 25 6 25 15 0 9 9 15 25 15 16 0 25 6 25 15 0
10 10 15 30 15 20 0 30 5 30 15 0 9 9 15 25 15 16 0 25 6 25 15 0 8 7 15 15
15 8 0 15 7 15 15 0 9 9 15 25 15 14 0 25 5 25 10 0 6 14 10 30 10 20 0 30 5
30 15 0 9 9 15 25 15 16 0 25 6 25 15 0 9 9 15 25 15 16 0 25 6 25 15 0 8 7
15 15 15 8 0 15 7 15 15 0 9 9 15 25 15 16 0 25 6 25 15 0 10 10 15 30 15 17
0 30 5 30 10 0 6 11 10 25 10 16 0 25 6 25 15 0 8 7 15 15 15 8 0 15 7 15 15
0 9 9 15 25 15 16 0 25 6 25 15 0 9 9 15 25 15 16 0 25 6 25 15 0 10 10 15 30
15 20 0 30 5 30 15 0 9 9 15 25 15 14 0 25 5 25 10 0 6 7 10 15 10 8 0 15 7
15 15 0 9 9 15 25 15 16 0 25 6 25 15 0 10 10 15 30 15 20 0 30 5 30 15 0 9 9
15 25 15 16 0 25 6 25 15 0 8 7 15 15 15 8 0 15 7 15 15 0 9 9 15 25 15 14 0
25 5 25 10 0 6 11 10 25 10 16 0 25 6 25 15 0 10 10 15 30 15 20 0 30 5 30 15
0 9 9 15 25 15 16 0 25 6 25 15 0 8 7 15 15 15 8 0 15 7 15 15 0 9 9 15 25 15
16 0 25 6 25 15 0 9 9 15 25 15 14 0 25 5 25 10 0 6 14 10 30 10 20 0 30 5 30
15 0 8 5 15 10 15 6 0 10 7 10 15 0 11 12 15 45 15 33 0 45 4 45 15 0 8 5 15
10 15 6 0 10 7 10 15 0 8 7 15 15 15 8 0 15 7 15 15 0 8 7 15 15 15 13 0 15
149 15 1285 0 1136 -2 1285 -15 1285 -8 0 -15 7 -15 15 0 8 -7 15 -15 15 -8 0
-15 7 -15 15 0 9 -9 15 -25 15 -16 0 -25 6 -25 15 0 10 -10 15 -30 15 -20 0
-30 5 -30 15 0 9 -9 15 -25 15 -16 0 -25 6 -25 15 0 9 -9 15 -25 15 -14 0 -25
5 -25 10 0 6 -13 10 -30 10 -20 0 -30 5 -30 15 0 9 -9 15 -25 15 -16 0 -25 6
-25 15 0 11 -11 15 -40 15 -29 0 -40 4 -40 15 0 9 -9 15 -25 15 -16 0 -25 6
-25 15 0 10 -10 15 -30 15 -20 0 -30 5 -30 15 0 11 -11 15 -36 15 -35 0 -64
18 -64 39 0 6 -20 11 -45 11 -33 0 -45 4 -45 15 0 8 -4 15 -10 15 -5 0 -10 7
-10 15 0 11 -11 15 -40 15 -29 0 -40 4 -40 15 0 11 -11 15 -40 15 -36 0 -40 3
-40 25 0 16 -6 25 -15 25 -8 0 -15 7 -15 15 0 8 7 15 15 15 8 0 15 7 15 15 0
11 11 15 40 15 38 0 40 2 40 30 0 17 5 30 10 30 6 0 10 -7 10 -15 0 -8 7 -15
15 -15 8 0 15 7 15 15 0 8 7 15 15 15 9 0 15 9 15 25 0 24 3 25 55 25 42 0 55
3 55 15 0 8 5 15 10 15 6 0 10 7 10 15 0 8 7 15 15 15 8 0 15 7 15 15 0 9 9
15 25 15 16 0 25 6 25 15 0 10 10 15 30 15 20 0 30 5 30 15 0 9 9 15 25 15 14
0 25 5 25 10 0 6 7 10 15 10 8 0 15 7 15 15 0 8 -7 15 -15 15 -8 0 -15 7 -15
15 0 8 -7 15 -15 15 -8 0 -15 7 -15 15 0 8 7 15 15 15 8 0 15 -7 15 -15 0 -8
7 -15 15 -15 8 0 15 -7 15 -15 0 -9 9 -15 25 -15 16 0 25 6 25 15 0 9 9 15 25
15 16 0 25 6 25 15 0 8 -4 15 -10 15 -5 0 -10 7 -10 15 0 8 5 15 10 15 6 0 10
-7 10 -15 0 -10 10 -15 30 -15 20 0 30 5 30 15 0 9 9 15 25 15 16 0 25 6 25
15 0 8 7 15 15 15 8 0 15 5 15 10 0 6 18 10 40 10 29 0 40 4 40 15 0 8 -7 15
-15 15 -8 0 -15 7 -15 15 0 8 7 15 15 15 8 0 15 -7 15 -15 0 -9 9 -15 25 -15
16 0 25 6 25 15 0 8 -4 15 -10 15 -5 0 -10 7 -10 15 0 8 -7 15 -15 15 -8 0
-15 7 -15 15 0 8 7 15 15 15 8 0 15 -7 15 -15 0 -8 5 -15 10 -15 6 0 10 -7 10
-15 0 -8 7 -15 15 -15 10 0 15 10 15 30 0 20 -5 30 -15 30 -9 0 -15 9 -15 25
0 16 6 25 15 25 13 0 15 138 15 1180 0 1042 -2 1180 -15 1180 -9 0 -15 9 -15
25 0 14 -4 25 -10 25 -5 0 -10 7 -10 15 0 10 -10 15 -30 15 -20 0 -30 -5 -30
-15 0 -9 -9 -15 -25 -15 -16 0 -25 -6 -25 -15 0 -10 -10 -15 -30 -15 -25 0
-30 -4 -30 -25 0 -22 -4 -25 -40 -25 -29 0 -40 -4 -40 -15 0 -9 -9 -15 -25
-15 -16 0 -25 -6 -25 -15 0 -9 -9 -15 -25 -15 -16 0 -25 -6 -25 -15 0 -10 -10
-15 -30 -15 -20 0 -30 -5 -30 -15 0 -9 -9 -15 -25 -15 -14 0 -25 -4 -25 -10 0
-5 -11 -10 -25 -10 -16 0 -25 -6 -25 -15 0 -10 -10 -15 -30 -15 -20 0 -30 -5
-30 -15 0 -9 -9 -15 -25 -15 -16 0 -25 -6 -25 -15 0 -8 -7 -15 -15 -15 -8 0
-15 -7 -15 -15 0 -9 -9 -15 -25 -15 -16 0 -25 -6 -25 -15 0 -11 -11 -15 -40
-15 -22 0 -40 -4 -40 -10 0 -5 -13 -10 -30 -10 -20 0 -30 -5 -30 -15 0 -8 -4
-15 -10 -15 -5 0 -10 -7 -10 -15 0 -10 -10 -15 -30 -15 -20 0 -30 -5 -30 -15
0 -9 -9 -15 -25 -15 -16 0 -25 -6 -25 -15 0 -9 -9 -15 -25 -15 -16 0 -25 -6
-25 -15 0 -8 -7 -15 -15 -15 -8 0 -15 -4 -15 -10 0 -5 -18 -10 -40 -10 -29 0
-40 -4 -40 -15 0 -9 -9 -15 -25 -15 -16 0 -25 -6 -25 -15 0 -10 -10 -15 -30
-15 -20 0 -30 -5 -30 -15 0 -9 -9 -15 -25 -15 -16 0 -25 -6 -25 -15 0 -10 -10
-15 -30 -15 -20 0 -30 -5 -30 -15 0 -9 -9 -15 -25 -15 -14 0 -25 -4 -25 -10 0
-5 -11 -10 -25 -10 -16 0 -25 -6 -25 -15 0 -11 -11 -15 -40 -15 -29 0 -40 -4
-40 -15 0 -8 -7 -15 -15 -15 -8 0 -15 -7 -15 -15 0 -9 -9 -15 -25 -15 -16 0
-25 -6 -25 -15 0 -8 -7 -15 -15 -15 -8 0 -15 -7 -15 -15 0 -11 -11 -15 -40
-15 -22 0 -40 -4 -40 -10 0 -5 -7 -10 -15 -10 -8 0 -15 -7 -15 -15 0 -11 -11
-15 -40 -15 -29 0 -40 -4 -40 -15 0 -8 -4 -15 -10 -15 -5 0 -10 -7 -10 -15 0
-10 -10 -15 -30 -15 -20 0 -30 -5 -30 -15 0 -9 -9 -15 -25 -15 -16 0 -25 -6
-25 -15 0 -10 -10 -15 -30 -15 -16 0 -30 -4 -30 -10 0 -5 -11 -10 -25 -10 -16
0 -25 -6 -25 -15 0 -9 -9 -15 -25 -15 l-25 0 0 -1360 c0 -1202 -2 -1360 -15
-1360 -8 0 -15 -7 -15 -15 0 -11 -11 -15 -40 -15 -29 0 -40 4 -40 15 0 8 -7
15 -15 15 -8 0 -15 7 -15 15 0 9 -9 15 -25 15 -14 0 -25 5 -25 10 0 6 -11 10
-25 10 -16 0 -25 6 -25 15 0 10 -10 15 -30 15 -20 0 -30 5 -30 15 0 9 -9 15
-25 15 -16 0 -25 6 -25 15 0 9 -9 15 -25 15 -16 0 -25 6 -25 15 0 10 -10 15
-30 15 -20 0 -30 5 -30 15 0 9 -9 15 -25 15 -14 0 -25 5 -25 10 0 6 -7 10 -15
10 -8 0 -15 7 -15 15 0 11 -11 15 -40 15 -29 0 -40 4 -40 15 0 8 -7 15 -15 15
-8 0 -15 7 -15 15 0 9 -9 15 -25 15 -16 0 -25 6 -25 15 0 9 -9 15 -25 15 -16
0 -25 6 -25 15 0 9 -10 15 -26 15 -57 0 -54 -43 -54 864 0 736 -2 836 -15 836
-8 0 -15 5 -15 10 0 6 -11 10 -25 10 -16 0 -25 6 -25 15 0 10 -10 15 -30 15
-20 0 -30 5 -30 15 0 9 -9 15 -25 15 -16 0 -25 6 -25 15 0 11 -11 15 -40 15
-29 0 -40 4 -40 15 0 10 -10 15 -30 15 -20 0 -30 5 -30 15 0 9 -9 15 -25 15
-14 0 -25 5 -25 10 0 6 -11 10 -25 10 -16 0 -25 6 -25 15 0 10 -10 15 -30 15
-20 0 -30 5 -30 15 0 9 -9 15 -25 15 -16 0 -25 6 -25 15 0 9 -9 15 -25 15 -16
0 -25 6 -25 15 0 10 -10 15 -30 15 -20 0 -30 5 -30 15 0 11 -11 15 -40 15 -22
0 -40 5 -40 10 0 6 -11 10 -25 10 -16 0 -25 6 -25 15 0 9 -9 15 -25 15 -16 0
-25 6 -25 15 0 10 -10 15 -30 15 -20 0 -30 5 -30 15 0 9 -9 15 -25 15 -16 0
-25 6 -25 15 0 11 -11 15 -40 15 -29 0 -40 4 -40 15 0 10 -10 15 -30 15 -16 0
-30 5 -30 10 0 6 -11 10 -25 10 -16 0 -25 6 -25 15 0 9 -9 15 -25 15 -16 0
-25 6 -25 15 0 10 -10 15 -30 15 -20 0 -30 5 -30 15 0 9 -9 15 -25 15 -16 0
-25 6 -25 15 0 9 -9 15 -25 15 -16 0 -25 6 -25 15 0 9 -10 15 -26 15 -56 0
-54 -21 -54 609 l0 581 25 0 c14 0 25 5 25 10 0 6 7 10 15 10 8 0 15 7 15 15
0 9 9 15 25 15 16 0 25 6 25 15 0 11 11 15 40 15 29 0 40 4 40 15 0 9 9 15 25
15 16 0 25 6 25 15 0 10 10 15 30 15 20 0 30 5 30 15 0 9 9 15 25 15 14 0 25
5 25 10 0 6 11 10 25 10 16 0 25 6 25 15 0 10 10 15 30 15 20 0 30 5 30 15 0
9 9 15 25 15 16 0 25 6 25 15 0 10 10 15 30 15 20 0 30 5 30 15 0 11 11 15 40
15 29 0 40 4 40 15 0 9 9 15 25 15 14 0 25 5 25 10 0 6 11 10 25 10 16 0 25 6
25 15 0 10 10 15 30 15 20 0 30 5 30 15 0 9 9 15 25 15 16 0 25 6 25 15 0 11
11 15 40 15 29 0 40 4 40 15 0 9 9 15 25 15 16 0 25 6 25 15 0 10 10 15 30 15
17 0 30 5 30 10 0 6 11 10 25 10 16 0 25 6 25 15 0 10 10 15 30 15 20 0 30 5
30 15 0 11 11 15 40 15 29 0 40 4 40 15 0 9 9 15 25 15 16 0 25 6 25 15 0 8 7
15 15 15 8 0 15 7 15 15 0 9 9 15 25 15 14 0 25 5 25 10 0 6 7 10 15 10 13 0
15 53 15 415 0 362 -2 415 -15 415 -11 0 -15 11 -15 40 0 29 -4 40 -15 40 -8
0 -15 7 -15 15 0 9 -9 15 -25 15 -16 0 -25 6 -25 15 0 9 -9 15 -25 15 -16 0
-25 6 -25 15 0 10 -10 15 -30 15 -16 0 -30 5 -30 10 0 6 -11 10 -25 10 -16 0
-25 6 -25 15 0 11 -11 15 -40 15 -29 0 -40 4 -40 15 0 10 -10 15 -30 15 -20 0
-30 5 -30 15 0 8 -4 15 -10 15 -5 0 -10 7 -10 15 0 11 -11 15 -40 15 -29 0
-40 4 -40 15 0 10 -10 15 -30 15 -16 0 -30 5 -30 10 0 6 -11 10 -25 10 -16 0
-25 6 -25 15 0 9 -9 15 -25 15 -16 0 -25 6 -25 15 0 10 -10 15 -30 15 -20 0
-30 5 -30 15 0 9 -9 15 -25 15 -16 0 -25 6 -25 15 0 11 -11 15 -40 15 -29 0
-40 4 -40 15 0 9 -9 15 -25 15 -14 0 -25 5 -25 10 0 6 -7 10 -15 10 -8 0 -15
7 -15 15 0 11 -11 15 -40 15 -29 0 -40 4 -40 15 0 10 -10 15 -30 15 -20 0 -30
5 -30 15 0 9 -9 15 -25 15 -16 0 -25 6 -25 15 0 11 -11 15 -40 15 -29 0 -40 4
-40 15 0 9 -9 15 -25 15 -14 0 -25 5 -25 10 0 6 -13 10 -30 10 -20 0 -30 5
-30 15 0 9 -9 15 -25 15 -16 0 -25 6 -25 15 0 8 -7 15 -15 15 -8 0 -15 7 -15
15 0 11 -11 15 -40 15 -29 0 -40 4 -40 15 0 9 -9 15 -25 15 -16 0 -25 6 -25
15 0 11 -11 15 -40 15 -22 0 -40 5 -40 10 0 6 -13 10 -30 10 -20 0 -30 5 -30
15 0 9 -9 15 -25 15 -16 0 -25 6 -25 15 0 9 -9 15 -25 15 -16 0 -25 6 -25 15
0 10 -10 15 -30 15 -20 0 -30 5 -30 15 0 11 -11 15 -40 15 -29 0 -40 4 -40 15
0 9 -9 15 -25 15 -14 0 -25 5 -25 10 0 6 -11 10 -25 10 -16 0 -25 6 -25 15 0
10 -10 15 -30 15 -20 0 -30 5 -30 15 0 9 -9 15 -25 15 -16 0 -25 6 -25 15 0 9
-9 15 -25 15 -16 0 -25 6 -25 15 0 12 -13 15 -55 15 -42 0 -55 -3 -55 -15z
m5200 -2810 c0 -8 -7 -15 -15 -15 -9 0 -15 -9 -15 -25 0 -16 -6 -25 -15 -25
-9 0 -15 9 -15 25 0 16 6 25 15 25 8 0 15 7 15 15 0 8 7 15 15 15 8 0 15 -7
15 -15z m-560 -340 c0 -8 -7 -15 -15 -15 -8 0 -15 7 -15 15 0 8 7 15 15 15 8
0 15 -7 15 -15z m-350 -195 c0 -5 -7 -10 -15 -10 -8 0 -15 5 -15 10 0 6 7 10
15 10 8 0 15 -4 15 -10z m-380 -195 c0 -9 -9 -15 -25 -15 -16 0 -25 6 -25 15
0 9 9 15 25 15 16 0 25 -6 25 -15z m220 0 c0 -8 -7 -15 -15 -15 -8 0 -15 7
-15 15 0 8 7 15 15 15 8 0 15 -7 15 -15z m-700 -290 c0 -8 -7 -15 -15 -15 -8
0 -15 7 -15 15 0 8 7 15 15 15 8 0 15 -7 15 -15z m1800 -1385 c0 -5 -7 -10
-15 -10 -8 0 -15 5 -15 10 0 6 7 10 15 10 8 0 15 -4 15 -10z m-60 -40 c0 -25
-4 -30 -25 -30 -16 0 -25 6 -25 15 0 8 5 15 10 15 6 0 10 7 10 15 0 8 7 15 15
15 10 0 15 -10 15 -30z m-240 -185 c0 -9 -9 -15 -25 -15 -16 0 -25 6 -25 15 0
9 9 15 25 15 16 0 25 -6 25 -15z m-380 -140 c0 -9 -9 -15 -25 -15 -16 0 -25
-6 -25 -15 0 -8 -7 -15 -15 -15 -8 0 -15 7 -15 15 0 8 7 15 15 15 8 0 15 7 15
15 0 9 9 15 25 15 16 0 25 -6 25 -15z m170 0 c0 -8 -7 -15 -15 -15 -8 0 -15 7
-15 15 0 8 7 15 15 15 8 0 15 -7 15 -15z m-80 -90 c0 -8 -7 -15 -15 -15 -8 0
-15 7 -15 15 0 8 7 15 15 15 8 0 15 -7 15 -15z m-330 -140 c0 -8 -4 -15 -10
-15 -5 0 -10 7 -10 15 0 8 5 15 10 15 6 0 10 -7 10 -15z m-480 -370 c0 -9 -9
-15 -25 -15 -16 0 -25 6 -25 15 0 9 9 15 25 15 16 0 25 -6 25 -15z m-400 -185
c0 -25 -4 -30 -25 -30 -21 0 -25 5 -25 30 0 25 4 30 25 30 21 0 25 -5 25 -30z
m-130 -95 c0 -8 -7 -15 -15 -15 -8 0 -15 7 -15 15 0 8 7 15 15 15 8 0 15 -7
15 -15z"/>
<path d="M43290 43375 c0 -8 -7 -15 -15 -15 -8 0 -15 -7 -15 -15 0 -11 -11
-15 -40 -15 -22 0 -40 -4 -40 -10 0 -5 -11 -10 -25 -10 -16 0 -25 -6 -25 -15
0 -10 -10 -15 -30 -15 -20 0 -30 -5 -30 -15 0 -11 -11 -15 -40 -15 -29 0 -40
-4 -40 -15 0 -9 -9 -15 -25 -15 -16 0 -25 -6 -25 -15 0 -11 -11 -15 -40 -15
-36 0 -40 -2 -40 -25 0 -16 6 -25 15 -25 8 0 15 -7 15 -15 0 -9 9 -15 25 -15
16 0 25 -6 25 -15 0 -9 9 -15 25 -15 16 0 25 -6 25 -15 0 -10 10 -15 30 -15
20 0 30 -5 30 -15 0 -9 9 -15 25 -15 16 0 25 -6 25 -15 0 -9 9 -15 25 -15 14
0 25 -4 25 -10 0 -5 7 -10 15 -10 8 0 15 -7 15 -15 0 -9 9 -15 25 -15 16 0 25
-6 25 -15 0 -10 10 -15 30 -15 20 0 30 -5 30 -15 0 -9 9 -15 25 -15 l25 0 0
-340 0 -340 40 0 c29 0 40 4 40 15 0 9 9 15 25 15 16 0 25 6 25 15 0 10 10 15
30 15 20 0 30 5 30 15 0 9 9 15 25 15 14 0 25 5 25 10 0 6 14 10 30 10 20 0
30 5 30 15 0 9 9 15 25 15 16 0 25 6 25 15 0 8 7 15 15 15 8 0 15 7 15 15 0 9
9 15 25 15 16 0 25 6 25 15 0 9 9 15 25 15 16 0 25 6 25 15 0 11 11 15 40 15
l40 0 0 336 c0 363 0 364 -54 364 -16 0 -26 6 -26 15 0 11 -11 15 -40 15 -29
0 -40 4 -40 15 0 8 -4 15 -10 15 -5 0 -10 7 -10 15 0 11 -11 15 -40 15 -29 0
-40 4 -40 15 0 10 -10 15 -30 15 -20 0 -30 5 -30 15 0 9 -9 15 -25 15 -14 0
-25 5 -25 10 0 6 -13 10 -30 10 -20 0 -30 5 -30 15 0 9 -9 15 -25 15 -16 0
-25 6 -25 15 0 12 -14 15 -65 15 -51 0 -65 -3 -65 -15z"/>
<path d="M46180 43320 c0 -5 -11 -10 -25 -10 -16 0 -25 -6 -25 -15 0 -10 -10
-15 -30 -15 -20 0 -30 -5 -30 -15 0 -11 -11 -15 -40 -15 -29 0 -40 -4 -40 -15
0 -9 -9 -15 -25 -15 -16 0 -25 -6 -25 -15 0 -9 -9 -15 -25 -15 -14 0 -25 -5
-25 -11 0 -19 28 -39 54 -39 16 0 26 -6 26 -15 0 -9 9 -15 25 -15 16 0 25 -6
25 -15 0 -9 9 -15 25 -15 16 0 25 -6 25 -15 0 -10 10 -15 30 -15 20 0 30 -5
30 -15 0 -9 9 -15 25 -15 16 0 25 -6 25 -15 0 -8 7 -15 15 -15 8 0 15 -4 15
-10 0 -5 7 -10 15 -10 8 0 15 -7 15 -15 0 -8 -7 -15 -15 -15 -13 0 -15 -21
-15 -130 0 -109 2 -130 15 -130 12 0 15 -14 15 -70 0 -40 4 -70 10 -70 6 0 10
7 10 15 0 10 10 15 30 15 20 0 30 5 30 15 0 9 9 15 25 15 16 0 25 6 25 15 0 9
9 15 25 15 14 0 25 5 25 10 0 6 14 10 30 10 20 0 30 5 30 15 0 8 5 15 10 15 6
0 10 7 10 15 0 10 10 15 30 15 20 0 30 5 30 15 0 8 5 15 10 15 6 0 10 82 10
225 l0 225 -25 0 c-16 0 -25 6 -25 15 0 9 -9 15 -25 15 -16 0 -25 6 -25 15 0
11 -11 15 -40 15 -29 0 -40 4 -40 15 0 8 -7 15 -15 15 -8 0 -15 7 -15 15 0 11
-11 15 -40 15 -22 0 -40 5 -40 10 0 6 -25 10 -55 10 -30 0 -55 -4 -55 -10z"/>
<path d="M98230 38336 l0 -4447 1753 4 c1917 3 1828 1 2192 63 1261 217 2064
950 2241 2049 21 135 30 529 15 677 -79 756 -504 1288 -1271 1591 -143 56
-304 105 -485 147 -77 18 -147 34 -155 37 -8 3 32 22 90 42 317 113 553 241
782 423 424 338 679 792 739 1318 15 134 6 487 -16 630 -113 733 -463 1218
-1110 1535 -473 232 -1007 344 -1777 371 l-188 7 0 -474 0 -475 223 -12 c531
-29 878 -121 1160 -309 373 -248 552 -668 534 -1251 -5 -192 -29 -327 -83
-485 -188 -544 -707 -880 -1488 -962 -119 -12 -308 -15 -1056 -15 l-910 0 0
1516 0 1515 -26 77 c-33 101 -101 238 -163 332 -215 326 -517 504 -909 535
l-92 7 0 -4446z m3190 -420 c505 -75 833 -247 1066 -555 176 -235 260 -495
271 -842 11 -362 -45 -651 -178 -909 -188 -367 -550 -620 -1023 -715 -233 -46
-255 -47 -1278 -52 l-978 -5 0 1552 0 1551 1003 -4 c883 -3 1016 -6 1117 -21z"/>
<path d="M90703 39713 c3 -3163 0 -2957 53 -3283 156 -975 600 -1765 1270
-2261 391 -290 842 -468 1359 -535 164 -22 599 -25 760 -6 506 60 904 203
1300 467 703 469 1189 1281 1359 2275 65 378 60 118 64 3343 l2 2927 -520 0
-520 0 -3 -2877 c-3 -2637 -4 -2888 -20 -3003 -70 -520 -198 -897 -415 -1230
-317 -486 -785 -775 -1361 -841 -153 -17 -487 -7 -626 20 -366 69 -671 225
-933 476 -186 178 -308 347 -427 590 -148 302 -225 573 -282 995 -15 114 -17
367 -20 2998 l-3 2872 -520 0 -520 0 3 -2927z"/>
<path d="M46180 42615 c0 -8 7 -15 15 -15 8 0 15 7 15 15 0 8 -7 15 -15 15 -8
0 -15 -7 -15 -15z"/>
<path d="M82920 38230 l0 -4340 530 0 530 0 0 4340 0 4340 -530 0 -530 0 0
-4340z"/>
<path d="M88240 38230 l0 -4340 535 0 535 0 0 4340 0 4340 -535 0 -535 0 0
-4340z"/>
<path d="M29240 42393 c0 -159 112 -367 274 -506 153 -132 393 -260 635 -341
l138 -46 689 0 c866 0 1028 -10 1312 -81 271 -67 489 -175 672 -332 224 -192
394 -476 474 -793 53 -210 60 -278 61 -584 0 -319 -13 -422 -81 -646 -202
-672 -731 -1088 -1504 -1186 -79 -10 -292 -13 -850 -13 l-745 0 -3 762 -2 762
-433 -5 c-237 -2 -478 -7 -534 -10 l-103 -6 0 -2879 0 -2879 535 0 535 0 0
1650 0 1650 678 0 c717 0 936 8 1188 40 758 97 1410 435 1817 940 300 373 475
788 559 1330 19 128 22 184 23 480 0 359 -9 469 -60 723 -188 927 -744 1547
-1650 1841 -217 70 -443 116 -746 153 -128 15 -296 17 -1511 20 l-1368 4 0
-48z"/>
<path d="M35905 42378 c15 -146 58 -265 136 -379 125 -185 370 -350 674 -455
l110 -38 705 -7 c457 -4 733 -10 785 -18 334 -49 600 -147 794 -291 42 -31
114 -97 161 -147 179 -191 285 -420 342 -733 26 -146 36 -488 19 -652 -75
-718 -468 -1219 -1104 -1409 -239 -71 -251 -72 -984 -76 l-663 -4 0 830 0 831
-490 0 -490 0 0 -3110 0 -3110 490 0 490 0 0 1846 0 1845 608 -2 c442 -2 632
1 697 10 111 16 528 113 633 148 335 112 735 344 998 580 225 201 446 524 577
843 254 618 274 1469 51 2123 -107 312 -258 555 -483 777 -334 329 -791 537
-1366 619 -264 38 -371 41 -1547 41 l-1150 0 7 -62z"/>
<path d="M58440 39568 c0 -1649 -4 -2949 -10 -3066 -22 -466 -94 -789 -247
-1095 -221 -445 -571 -691 -1113 -782 -132 -23 -475 -31 -625 -15 -68 7 -186
29 -275 52 -125 32 -174 40 -255 41 -116 2 -161 -10 -215 -59 -56 -51 -76
-109 -90 -259 -6 -71 -20 -217 -30 -322 -11 -106 -20 -213 -20 -237 0 -44 1
-46 38 -55 532 -139 1141 -191 1627 -141 1302 136 2145 953 2364 2290 59 354
54 109 58 3448 l3 3062 -605 0 -605 0 0 -2862z"/>
<path d="M61000 38020 l0 -4410 2275 0 2275 0 0 408 c0 225 3 443 6 485 l7 77
-1779 2 -1779 3 -3 1502 -2 1503 1437 2 1438 3 3 468 2 467 -1440 0 -1440 0 0
1465 0 1465 1775 0 1775 0 0 485 0 485 -2275 0 -2275 0 0 -4410z"/>
<path d="M69550 42423 c-1099 -80 -2027 -759 -2566 -1878 -351 -730 -524
-1564 -524 -2528 0 -994 182 -1870 540 -2602 188 -383 397 -681 670 -956 177
-177 267 -252 465 -384 364 -243 738 -383 1181 -441 161 -22 594 -25 764 -5
565 64 1012 244 1430 578 106 84 319 292 410 398 110 129 231 297 226 312 -13
34 -382 526 -408 545 -17 11 -49 23 -72 25 -58 7 -107 -20 -181 -99 -142 -151
-308 -309 -395 -377 -256 -197 -529 -310 -890 -366 -161 -25 -553 -31 -707
-11 -795 105 -1426 662 -1786 1576 -168 429 -263 885 -298 1435 -14 234 -6
746 16 964 80 800 311 1467 675 1949 444 590 1055 885 1776 859 325 -12 534
-60 811 -188 200 -92 423 -245 633 -433 106 -96 176 -136 235 -136 45 0 112
28 137 56 10 11 94 154 187 319 l169 299 -30 39 c-60 75 -243 260 -346 349
-267 230 -574 420 -862 533 -200 78 -484 141 -747 164 -110 10 -402 12 -513 4z"/>
<path d="M72780 41865 l0 -495 2536 0 2535 0 142 56 c461 182 787 428 907 686
29 62 59 177 60 226 l0 22 -3090 0 -3090 0 0 -495z"/>
<path d="M41760 42325 c0 -9 -9 -15 -25 -15 -14 0 -25 -4 -25 -10 0 -5 -7 -10
-15 -10 -8 0 -15 -7 -15 -15 0 -8 -7 -15 -15 -15 -8 0 -15 -7 -15 -15 0 -8 7
-15 15 -15 8 0 15 -7 15 -15 0 -8 -7 -15 -15 -15 -8 0 -15 7 -15 15 0 9 -9 15
-25 15 -16 0 -25 -6 -25 -15 0 -8 7 -15 15 -15 8 0 15 -7 15 -15 0 -8 -7 -15
-15 -15 -8 0 -15 -7 -15 -15 0 -8 7 -15 15 -15 8 0 15 7 15 15 0 9 9 15 25 15
16 0 25 -6 25 -15 0 -8 -5 -15 -11 -15 -19 0 -39 -28 -39 -54 0 -14 5 -26 10
-26 6 0 10 7 10 15 0 8 7 15 15 15 8 0 15 7 15 15 0 11 11 15 40 15 22 0 40 5
40 10 0 6 7 10 15 10 12 0 15 13 15 60 0 47 -3 60 -15 60 -9 0 -15 9 -15 25 0
16 6 25 15 25 8 0 15 7 15 15 0 8 -7 15 -15 15 -8 0 -15 -7 -15 -15z m0 -80
c0 -9 -9 -15 -25 -15 -16 0 -25 6 -25 15 0 9 9 15 25 15 16 0 25 -6 25 -15z"/>
<path d="M43470 41305 c0 -9 -9 -15 -25 -15 -14 0 -25 -4 -25 -10 0 -5 -7 -10
-15 -10 -8 0 -15 -7 -15 -15 0 -9 -9 -15 -25 -15 -16 0 -25 -6 -25 -15 0 -9
-9 -15 -25 -15 -16 0 -25 -6 -25 -15 0 -10 -10 -15 -30 -15 -20 0 -30 -5 -30
-15 0 -11 -11 -15 -40 -15 -22 0 -40 -5 -40 -11 0 -19 -28 -39 -54 -39 -16 0
-26 -6 -26 -15 0 -9 -9 -15 -25 -15 l-25 0 0 -300 c0 -260 2 -300 15 -300 8 0
15 7 15 15 0 9 9 15 25 15 21 0 25 5 25 30 0 28 2 30 40 30 29 0 40 4 40 15 0
11 11 15 40 15 22 0 40 5 40 10 0 6 11 10 25 10 16 0 25 6 25 15 0 8 7 15 15
15 8 0 15 7 15 15 0 9 9 15 25 15 16 0 25 6 25 15 0 11 11 15 40 15 29 0 40 4
40 15 0 8 7 15 15 15 13 0 15 39 15 295 0 256 -2 295 -15 295 -8 0 -15 -7 -15
-15z m-20 -110 c0 -8 -7 -15 -15 -15 -8 0 -15 7 -15 15 0 8 7 15 15 15 8 0 15
-7 15 -15z m-110 -30 c0 -8 -7 -15 -15 -15 -8 0 -15 7 -15 15 0 8 7 15 15 15
8 0 15 -7 15 -15z m-210 -125 c0 -20 -5 -30 -15 -30 -10 0 -15 10 -15 30 0 20
5 30 15 30 10 0 15 -10 15 -30z m-60 -270 c0 -153 2 -180 15 -180 8 0 15 5 15
10 0 6 7 10 15 10 8 0 15 -4 15 -10 0 -5 -7 -10 -15 -10 -8 0 -15 -7 -15 -15
0 -9 -9 -15 -25 -15 l-25 0 0 195 c0 123 4 195 10 195 6 0 10 -67 10 -180z
m320 0 c0 -5 -4 -10 -10 -10 -5 0 -10 -7 -10 -15 0 -10 -10 -15 -30 -15 -20 0
-30 -5 -30 -15 0 -8 -4 -15 -10 -15 -5 0 -10 7 -10 15 0 8 5 15 10 15 6 0 10
7 10 15 0 8 7 15 15 15 8 0 15 5 15 10 0 6 11 10 25 10 14 0 25 -4 25 -10z
m60 -15 c0 -16 -6 -25 -15 -25 -9 0 -15 9 -15 25 0 16 6 25 15 25 9 0 15 -9
15 -25z"/>
<path d="M54490 40670 c0 -20 5 -30 15 -30 10 0 15 10 15 30 0 20 -5 30 -15
30 -10 0 -15 -10 -15 -30z"/>
<path d="M42240 39975 c0 -9 -9 -15 -25 -15 -16 0 -25 -6 -25 -15 0 -10 -10
-15 -30 -15 -16 0 -30 -4 -30 -10 0 -5 -11 -10 -25 -10 -16 0 -25 -6 -25 -15
0 -11 -11 -15 -40 -15 -38 0 -40 -2 -40 -30 0 -25 4 -30 25 -30 16 0 25 -6 25
-15 0 -8 7 -15 15 -15 8 0 15 -7 15 -15 0 -11 11 -15 40 -15 22 0 40 -4 40
-10 0 -5 11 -10 25 -10 16 0 25 -6 25 -15 0 -8 7 -15 15 -15 13 0 15 -26 15
-170 0 -144 2 -170 15 -170 8 0 15 7 15 15 0 9 9 15 25 15 14 0 25 5 25 10 0
6 14 10 30 10 20 0 30 5 30 15 0 9 9 15 25 15 16 0 25 6 25 15 0 9 9 15 25 15
16 0 25 6 25 15 0 8 7 15 15 15 8 0 15 7 15 15 0 8 7 15 15 15 13 0 15 24 15
155 0 131 -2 155 -15 155 -8 0 -15 7 -15 15 0 11 -11 15 -40 15 -29 0 -40 4
-40 15 0 9 -9 15 -25 15 -14 0 -25 5 -25 10 0 6 -13 10 -30 10 -20 0 -30 5
-30 15 0 9 -9 15 -25 15 -16 0 -25 6 -25 15 0 8 -7 15 -15 15 -8 0 -15 -7 -15
-15z"/>
<path d="M75340 36815 l0 -3135 530 0 530 0 0 3135 0 3135 -530 0 -530 0 0
-3135z"/>
<path d="M42160 39435 c0 -8 7 -15 15 -15 8 0 15 7 15 15 0 8 -7 15 -15 15 -8
0 -15 -7 -15 -15z"/>
<path d="M85469 38648 c-233 -163 -415 -350 -503 -518 -43 -82 -76 -189 -76
-246 l0 -44 1210 0 1210 0 0 430 0 430 -883 0 -884 0 -74 -52z"/>
<path d="M43580 37855 c0 -9 -9 -15 -25 -15 -16 0 -25 -6 -25 -15 0 -10 -10
-15 -30 -15 -20 0 -30 -5 -30 -15 0 -9 -9 -15 -25 -15 -16 0 -25 -6 -25 -15 0
-11 -11 -15 -40 -15 -29 0 -40 -4 -40 -15 0 -9 -9 -15 -25 -15 -14 0 -25 -4
-25 -10 0 -5 -13 -10 -30 -10 -20 0 -30 -5 -30 -15 0 -9 -9 -15 -25 -15 -16 0
-25 -6 -25 -15 0 -11 -11 -15 -40 -15 -29 0 -40 -4 -40 -15 0 -8 7 -15 15 -15
8 0 15 -7 15 -15 0 -8 5 -15 10 -15 6 0 10 -7 10 -15 0 -11 11 -15 40 -15 22
0 40 -4 40 -10 0 -5 7 -10 15 -10 8 0 15 -7 15 -15 0 -9 9 -15 25 -15 16 0 25
-6 25 -15 0 -10 10 -15 30 -15 20 0 30 -5 30 -15 0 -9 9 -15 25 -15 16 0 25
-6 25 -15 0 -9 9 -15 25 -15 16 0 25 -6 25 -15 0 -10 10 -15 30 -15 17 0 30
-4 30 -10 0 -5 11 -10 25 -10 16 0 25 -6 25 -15 0 -8 7 -15 15 -15 13 0 15
-44 15 -340 l0 -340 25 0 c16 0 25 6 25 15 0 8 7 15 15 15 8 0 15 5 15 10 0 6
11 10 25 10 16 0 25 6 25 15 0 10 10 15 30 15 20 0 30 5 30 15 0 9 9 15 25 15
16 0 25 6 25 15 0 9 9 15 25 15 16 0 25 6 25 15 0 11 11 15 40 15 29 0 40 4
40 15 0 8 7 15 15 15 8 0 15 5 15 10 0 6 18 10 40 10 29 0 40 4 40 15 0 8 7
15 15 15 8 0 15 7 15 15 0 9 9 15 25 15 l25 0 0 155 c0 131 -2 155 -15 155 -8
0 -15 7 -15 15 0 8 7 15 15 15 13 0 15 24 15 155 0 131 -2 155 -15 155 -8 0
-15 7 -15 15 0 8 -4 15 -10 15 -5 0 -10 7 -10 15 0 11 -11 15 -40 15 -29 0
-40 4 -40 15 0 10 -10 15 -30 15 -20 0 -30 5 -30 15 0 9 -9 15 -25 15 -14 0
-25 5 -25 10 0 6 -11 10 -25 10 -16 0 -25 6 -25 15 0 10 -10 15 -30 15 -20 0
-30 5 -30 15 0 9 -9 15 -25 15 -16 0 -25 6 -25 15 0 9 -9 15 -25 15 -16 0 -25
6 -25 15 0 10 -10 15 -30 15 -20 0 -30 5 -30 15 0 11 -11 15 -40 15 -29 0 -40
-4 -40 -15z"/>
<path d="M45190 36665 c0 -8 -7 -15 -15 -15 -8 0 -15 -7 -15 -15 0 -9 -9 -15
-25 -15 -16 0 -25 -6 -25 -15 0 -9 -9 -15 -25 -15 -16 0 -25 -6 -25 -15 0 -10
-10 -15 -30 -15 -20 0 -30 -5 -30 -15 0 -8 7 -15 15 -15 8 0 15 -4 15 -10 0
-5 11 -10 25 -10 16 0 25 -6 25 -15 0 -10 10 -15 30 -15 20 0 30 -5 30 -15 0
-9 9 -15 25 -15 16 0 25 -6 25 -15 0 -9 9 -15 25 -15 16 0 25 -6 25 -15 0 -8
7 -15 15 -15 13 0 15 -27 15 -185 l0 -185 25 0 c16 0 25 6 25 15 0 10 10 15
30 15 20 0 30 5 30 15 0 9 9 15 25 15 16 0 25 6 25 15 0 8 7 15 15 15 8 0 15
7 15 15 0 9 9 15 25 15 16 0 25 6 25 15 0 9 10 15 26 15 51 0 54 13 54 209 l0
181 -25 0 c-16 0 -25 6 -25 15 0 11 -11 15 -40 15 -29 0 -40 4 -40 15 0 8 -7
15 -15 15 -8 0 -15 7 -15 15 0 9 -9 15 -25 15 -16 0 -25 6 -25 15 0 12 -17 15
-95 15 -78 0 -95 -3 -95 -15z"/>
<path d="M38520 36357 c0 -8 1476 -2513 1517 -2575 41 -60 110 -115 186 -146
50 -20 68 -21 540 -24 l488 -3 -28 49 c-15 26 -309 522 -653 1101 -385 649
-646 1078 -680 1119 -185 222 -559 389 -1025 457 -117 17 -345 32 -345 22z"/>
<path d="M45160 36180 c0 -5 7 -10 15 -10 8 0 15 5 15 10 0 6 -7 10 -15 10 -8
0 -15 -4 -15 -10z"/>
<path d="M43020 36065 c0 -8 7 -15 15 -15 8 0 15 -7 15 -15 0 -8 -7 -15 -15
-15 -8 0 -15 7 -15 15 0 9 -9 15 -25 15 -16 0 -25 -6 -25 -15 0 -8 -7 -15 -15
-15 -9 0 -15 -9 -15 -25 0 -16 -6 -25 -15 -25 -12 0 -15 -16 -15 -85 0 -69 3
-85 15 -85 8 0 15 7 15 15 0 9 9 15 25 15 14 0 25 5 25 10 0 6 7 10 15 10 8 0
15 7 15 15 0 9 9 15 25 15 16 0 25 6 25 15 0 9 -9 15 -25 15 -16 0 -25 -6 -25
-15 0 -8 -7 -15 -15 -15 -8 0 -15 7 -15 15 0 8 -4 15 -10 15 -5 0 -10 20 -10
45 0 41 2 45 25 45 16 0 25 -6 25 -15 0 -8 -7 -15 -15 -15 -10 0 -15 -10 -15
-30 0 -20 5 -30 15 -30 8 0 15 7 15 15 0 9 9 15 25 15 24 0 25 2 25 70 0 68
-1 70 -25 70 -16 0 -25 -6 -25 -15z"/>
<path d="M43900 35695 c0 -9 -9 -15 -25 -15 -14 0 -25 -4 -25 -10 0 -5 -11
-10 -25 -10 -16 0 -25 -6 -25 -15 0 -11 -11 -15 -40 -15 -29 0 -40 -4 -40 -15
0 -10 -10 -15 -30 -15 -20 0 -30 -5 -30 -15 0 -9 -9 -15 -25 -15 -16 0 -25 -6
-25 -15 0 -9 -9 -15 -25 -15 -16 0 -25 -6 -25 -15 0 -10 -10 -15 -30 -15 -16
0 -30 -4 -30 -10 0 -5 7 -10 15 -10 8 0 15 -7 15 -15 0 -8 7 -15 15 -15 8 0
15 -7 15 -15 0 -9 9 -15 25 -15 16 0 25 -6 25 -15 0 -9 9 -15 25 -15 16 0 25
-6 25 -15 0 -10 10 -15 30 -15 20 0 30 -5 30 -15 0 -9 9 -15 25 -15 14 0 25
-4 25 -10 0 -5 11 -10 25 -10 16 0 25 -6 25 -15 0 -10 10 -15 30 -15 20 0 30
-5 30 -15 0 -9 9 -15 25 -15 l25 0 0 -300 0 -300 25 0 c16 0 25 6 25 15 0 10
10 15 30 15 20 0 30 5 30 15 0 9 9 15 25 15 16 0 25 6 25 15 0 9 9 15 25 15
16 0 25 6 25 15 0 8 7 15 15 15 8 0 15 7 15 15 0 10 10 15 30 15 17 0 30 5 30
10 0 6 11 10 25 10 16 0 25 6 25 15 0 9 9 15 25 15 16 0 25 6 25 15 0 10 10
15 30 15 20 0 30 5 30 15 0 8 5 15 10 15 6 0 10 18 10 40 0 29 4 40 15 40 13
0 15 34 15 245 0 211 -2 245 -15 245 -8 0 -15 5 -15 10 0 6 -11 10 -25 10 -16
0 -25 6 -25 15 0 9 -9 15 -25 15 -16 0 -25 6 -25 15 0 10 -10 15 -30 15 -20 0
-30 5 -30 15 0 9 -9 15 -25 15 -16 0 -25 6 -25 15 0 11 -11 15 -40 15 -29 0
-40 4 -40 15 0 10 -10 15 -30 15 -16 0 -30 5 -30 10 0 6 -11 10 -25 10 -16 0
-25 6 -25 15 0 12 -13 15 -55 15 -42 0 -55 -3 -55 -15z"/>
<path d="M43640 34875 c0 -8 5 -15 10 -15 6 0 10 7 10 15 0 8 -4 15 -10 15 -5
0 -10 -7 -10 -15z"/>
<path d="M51780 33545 c0 -8 7 -15 15 -15 8 0 15 7 15 15 0 8 -7 15 -15 15 -8
0 -15 -7 -15 -15z"/>
<path d="M52000 33345 c0 -8 7 -15 15 -15 8 0 15 7 15 15 0 8 -7 15 -15 15 -8
0 -15 -7 -15 -15z"/>
</g>
</svg>
